<svg height="34" viewBox="0 0 36 34" width="36" xmlns="http://www.w3.org/2000/svg"><g fill="#6b58ea" fill-rule="evenodd" transform=""><path d="m25.5949349 13.5052867c3.3941739 0 10.0862609.0015813 10.0862609.0015813s.0015652 1.2761861.0015652 8.1267907c-.0007826 2.1965582-.2903478 4.3282791-1.4337391 6.253628-1.5433044 2.5998139-3.924 4.022279-6.7507826 4.7133488-1.9526087.4783721-3.9083479.7519535-5.8546957.7827907-.147913.0023721-7.5028696.0031628-7.6507826.0023721-.1338261 0-.2668696-.0015814-.399913-.0047442-2.2609566-.0474419-4.50939135-.4301395-6.73121744-1.2113488-4.122-1.4477675-6.41269565-4.4373954-6.78208695-8.8653024-.05634783-.672093-.07513044-1.3481395-.07591305-2.0218139-.00547826-6.6821861-.00313043-7.7773023-.00313043-7.7773023l10.13321737-.0031628s-.0007826-1.0192093.0031305 5.3253488c0 .4214419.0086087.8460465.0633913 1.2611628.259826 1.9577674 1.4313913 3.0378605 3.3933913 3.0987442.1541739.0047442.309913.007907.4656521.0086976.1103479 0 7.4285218-.0015813 7.5404348-.0039534.3991305-.0110698.7990435-.0450698 1.1872174-.1170233 1.7366087-.3281395 2.6733913-1.4430233 2.7845218-3.2236744.0289565-.4617675.0226956-.9266977.0226956-1.3900465.0015652-6.2196279.0007826-4.6524651.0007826-4.956093"/><path d="m35.913913 5.09525581c0-2.81488372-2.2586087-5.09525581-5.043913-5.09525581-2.786087 0-5.043913 2.28037209-5.043913 5.09525581s2.257826 5.09604649 5.043913 5.09604649c2.7853043 0 5.043913-2.28116277 5.043913-5.09604649"/><path d="m10.0886087 5.09525581c0-2.81488372-2.2586087-5.09525581-5.04391305-5.09525581-2.78608695 0-5.04469565 2.28037209-5.04469565 5.09525581s2.2586087 5.09604649 5.04469565 5.09604649c2.78530435 0 5.04391305-2.28116277 5.04391305-5.09604649"/></g></svg>